<svg xmlns="http://www.w3.org/2000/svg" viewBox="0 0 841.9 595.3">
	<g fill="#61DAFB">
		<path d="M502.467,388.12l-72.533-66.56c-21.333-19.627-54.613-19.627-75.947,0l-30.114,27.963L293.4,321.56
			c-21.333-19.627-54.613-19.627-75.947,0l-30.65,27.799l-29.937-27.799c-21.333-19.627-54.613-19.627-75.947,0L7.533,388.12
			C2.413,392.387-1,399.213-1,406.893c0,7.68,2.56,14.507,7.68,19.627s11.947,7.68,18.773,7.68c5.853,0,11.078-1.886,16.213-5.111
			v73.378c0,5.12,3.413,8.533,8.533,8.533h51.2h34.133h51.2h51.2h34.133h51.2h51.2H408.6h51.2c5.12,0,8.533-3.413,6.827-8.533
			v-75.093c5.12,4.267,11.093,6.827,17.92,6.827s13.653-2.56,18.773-7.68c5.12-5.12,7.68-11.947,7.68-19.627
			C511,400.067,507.587,393.24,502.467,388.12z M228.547,333.507c7.68-6.827,17.067-10.24,26.453-10.24
			c10.24,0,19.627,3.413,25.6,10.24l72.533,66.56c2.56,1.707,3.413,4.267,3.413,6.827s-0.853,5.12-2.56,6.827
			c-2.004,1.603-4.196,2.443-6.4,2.541c-2.204-0.097-4.396-0.937-6.4-2.541l-11.947-10.24c-0.271-0.203-0.555-0.384-0.846-0.554
			L278.04,357.4c-13.653-12.8-32.427-12.8-46.08,0l-50.761,45.273c-0.45,0.233-0.884,0.5-1.292,0.807l-11.947,10.24
			c-2.01,1.608-4.397,2.448-6.718,2.541c-2.298-0.093-4.475-0.934-6.082-2.541c-1.707-1.707-2.56-4.267-2.56-6.827
			c0.853-2.56,1.707-5.12,3.413-6.827l9.045-8.3c0.114-0.078,0.231-0.151,0.342-0.234l27.307-24.747
			c0.527-0.527,0.962-1.057,1.327-1.609L228.547,333.507z M18.627,413.72c-1.707-1.707-2.56-4.267-2.56-6.827
			s0.853-4.267,3.413-6.827l72.533-66.56c7.68-6.827,17.067-10.24,26.453-10.24c10.24,0,19.627,3.413,25.6,9.387l29.013,26.453
			l-14.507,13.653l-17.067-15.36c-13.653-12.8-32.427-12.8-46.08,0L32.28,413.72C28.013,417.133,22.04,417.133,18.627,413.72z
				M58.733,414.573l7.352-6.695l41.288-36.825c3.757-3.339,7.718-5.034,11.683-5.106c4.065,0.072,8.018,1.767,11.357,5.106
			l16.213,14.507l-2.559,2.559l-0.001,0.001c-4.16,3.467-7.193,8.623-8.185,14.555c-0.229,1.369-0.349,2.779-0.349,4.219
			s0.09,2.85,0.27,4.224c0.12,0.916,0.28,1.817,0.48,2.7c0.1,0.441,0.21,0.879,0.33,1.311c0.24,0.865,0.52,1.712,0.84,2.538
			c0.32,0.827,0.68,1.633,1.08,2.418c0.4,0.785,0.84,1.548,1.32,2.288c0.96,1.48,2.08,2.867,3.36,4.147
			c0.558,0.558,1.139,1.08,1.736,1.577c0.046,0.038,0.091,0.079,0.137,0.117c0.586,0.482,1.191,0.93,1.808,1.353
			c0.056,0.038,0.111,0.078,0.167,0.115c0.621,0.418,1.256,0.806,1.904,1.166c0.057,0.032,0.115,0.064,0.172,0.095
			c0.646,0.352,1.303,0.677,1.972,0.972c0.076,0.034,0.153,0.065,0.229,0.098c0.644,0.277,1.296,0.532,1.958,0.757
			c0.145,0.05,0.292,0.092,0.437,0.139c0.49,0.157,0.984,0.3,1.481,0.428c0.449,0.118,0.901,0.218,1.355,0.313
			c0.167,0.034,0.335,0.069,0.503,0.099c7.251,1.378,14.973-0.133,20.977-4.568c0.05-0.031,0.1-0.062,0.151-0.093v64.845h-34.133
			v-42.667c0-5.12-3.413-8.533-8.533-8.533H101.4c-5.12,0-8.533,3.413-8.533,8.533v42.667H58.733V414.573z M109.933,493.933V459.8
			H127v34.133H109.933z M195.267,414.573l7.352-6.695l41.288-36.825c3.757-3.339,7.718-5.034,11.683-5.106
			c4.065,0.072,8.018,1.767,11.357,5.106l47.787,43.52v79.36H280.6v-42.667c0-5.12-3.413-8.533-8.533-8.533h-34.133
			c-5.12,0-8.533,3.413-8.533,8.533v42.667h-34.133V414.573z M246.467,493.933V459.8h17.067v34.133H246.467z M383,493.933V459.8
			h17.067v34.133H383z M451.267,493.933h-34.133v-42.667c0-5.12-3.413-8.533-8.533-8.533h-34.133c-5.12,0-8.533,3.413-8.533,8.533
			v42.667H331.8v-65.132c10.265,7.923,25.298,7.407,34.987-2.282c5.12-5.12,7.68-12.8,7.68-19.627c0-0.122-0.009-0.244-0.011-0.366
			c0.003-0.162,0.011-0.326,0.011-0.487c0-6.827-3.413-13.653-8.533-18.773l-2.48-1.653l16.987-14.56
			c3.705-3.294,7.609-4.982,11.52-5.098c3.911,0.116,7.815,1.804,11.52,5.098l47.787,43.52V493.933z M490.52,414.573
			c-4.267,3.413-9.387,3.413-13.653,0l-62.293-56.32c-4.927-4.311-10.301-7.28-16.117-8.603
			c-10.538-2.719-21.794,0.145-30.815,8.602c0,0-0.001,0-0.001,0.001l-17.248,15.605l-14.696-13.486l28.53-26.013
			c14.507-13.653,38.4-13.653,52.907,0l72.533,66.56c2.56,1.707,3.413,4.267,3.413,6.827S492.227,412.867,490.52,414.573z"/>
		<path d="M200.387,203.8c16.213,25.6,32.427,52.907,46.933,81.067c1.707,2.56,4.267,4.267,7.68,4.267s5.973-1.707,7.68-5.12
			c14.507-28.16,30.72-55.467,46.933-81.067c8.533-13.653,17.067-26.453,26.453-39.253c14.507-20.48,21.333-40.96,21.333-62.293
			C357.4,45.08,311.32-1,255-1S152.6,45.08,152.6,101.4c0,21.333,6.827,41.813,21.333,63.147
			C182.467,177.347,191.853,190.147,200.387,203.8z M255,16.067c46.933,0,85.333,38.4,83.627,85.333
			c0,17.92-5.973,35.84-17.92,52.907c-8.533,12.8-17.067,26.453-26.453,40.107c-13.653,21.333-27.307,44.373-40.107,68.267
			c-12.8-23.893-26.453-46.933-40.107-68.267c-8.533-13.653-17.067-27.307-26.453-40.107c-11.947-17.92-17.92-34.987-17.92-52.907
			C169.667,54.467,208.067,16.067,255,16.067z"/>
		<path d="M239.057,156.943c0.662,1.315,1.704,2.474,3.143,3.337c0.853,0.853,2.56,0.853,4.267,0.853
			c0.258,0,0.515-0.025,0.773-0.061c1.255-0.15,2.627-0.652,3.886-1.417c0.154-0.076,0.307-0.152,0.461-0.229
			c0.187-0.14,0.364-0.295,0.535-0.455c0.785-0.606,1.493-1.307,2.025-2.105l51.2-85.333c1.707-4.267,0.853-9.387-3.413-11.947
			c-4.267-1.707-9.387-0.853-11.093,3.413l-44.847,74.746l-18.299-24.399c-2.56-3.413-8.533-4.267-11.947-1.707
			s-4.267,8.533-1.707,11.947L239.057,156.943z"/>
	</g>
</svg>
